<mxfile host="app.diagrams.net" modified="2021-05-21T11:18:41.846Z" agent="5.0 (Macintosh; Intel Mac OS X 10_15_7) AppleWebKit/605.1.15 (KHTML, like Gecko) Version/14.1 Safari/605.1.15" etag="2IIKWyCUg99TX2NB-8cN" version="14.6.13" type="github">
  <diagram id="6a731a19-8d31-9384-78a2-239565b7b9f0" name="Page-1">
    <mxGraphModel dx="2520" dy="1630" grid="1" gridSize="10" guides="1" tooltips="1" connect="1" arrows="1" fold="1" page="1" pageScale="1" pageWidth="1169" pageHeight="827" background="#ffffff" math="0" shadow="0">
      <root>
        <mxCell id="0" />
        <mxCell id="1" parent="0" />
        <mxCell id="1747" value="" style="edgeStyle=none;rounded=0;jumpStyle=none;html=1;shadow=0;labelBackgroundColor=none;startArrow=none;startFill=0;endArrow=classic;endFill=1;jettySize=auto;orthogonalLoop=1;strokeColor=#2F5B7C;strokeWidth=3;fontFamily=Helvetica;fontSize=16;fontColor=#23445D;spacing=5;" parent="1" source="1749" target="1760" edge="1">
          <mxGeometry relative="1" as="geometry" />
        </mxCell>
        <mxCell id="1749" value="UI Kit&amp;nbsp;&lt;br style=&quot;font-size: 18px;&quot;&gt;&lt;font style=&quot;font-size: 18px; font-weight: normal;&quot;&gt;AdobeXD, Figma&lt;/font&gt;" style="rounded=1;whiteSpace=wrap;html=1;shadow=0;labelBackgroundColor=none;strokeColor=none;strokeWidth=3;fillColor=#2F5B7C;fontFamily=Helvetica;fontSize=18;fontColor=#FFFFFF;align=center;fontStyle=1;spacing=5;arcSize=7;perimeterSpacing=2;" parent="1" vertex="1">
          <mxGeometry x="-60" y="-220" width="210" height="79.33" as="geometry" />
        </mxCell>
        <mxCell id="1760" value="JSX Component as&amp;nbsp;&lt;br&gt;&lt;span style=&quot;font-weight: normal&quot;&gt;ReactJS, RxJS, SASS, WebPAck&lt;/span&gt;" style="rounded=1;whiteSpace=wrap;html=1;shadow=0;labelBackgroundColor=none;strokeColor=none;strokeWidth=3;fillColor=#1699d3;fontFamily=Helvetica;fontSize=14;fontColor=#FFFFFF;align=center;spacing=5;fontStyle=1;arcSize=7;perimeterSpacing=2;" parent="1" vertex="1">
          <mxGeometry x="-67.5" y="30" width="225" height="90" as="geometry" />
        </mxCell>
        <mxCell id="RhckIK_j0i6GvAb3lHkg-1790" value="Web Application,&lt;br&gt;SPA, PWA, SSR" style="whiteSpace=wrap;html=1;rounded=1;shadow=0;fontSize=14;fontColor=#FFFFFF;fontStyle=1;strokeColor=none;strokeWidth=3;fillColor=#1699d3;spacing=5;arcSize=7;" vertex="1" parent="1">
          <mxGeometry x="-64.17" y="290" width="221.67" height="70" as="geometry" />
        </mxCell>
        <mxCell id="RhckIK_j0i6GvAb3lHkg-1792" value="" style="edgeStyle=none;rounded=0;jumpStyle=none;html=1;shadow=0;labelBackgroundColor=none;startArrow=none;startFill=0;endArrow=classic;endFill=1;jettySize=auto;orthogonalLoop=1;strokeColor=#2F5B7C;strokeWidth=3;fontFamily=Helvetica;fontSize=16;fontColor=#23445D;spacing=5;entryX=0.5;entryY=0;entryDx=0;entryDy=0;" edge="1" parent="1" target="RhckIK_j0i6GvAb3lHkg-1790">
          <mxGeometry relative="1" as="geometry">
            <mxPoint x="44.41" y="119.99999999999991" as="sourcePoint" />
            <mxPoint x="44.41" y="216.67" as="targetPoint" />
          </mxGeometry>
        </mxCell>
        <mxCell id="RhckIK_j0i6GvAb3lHkg-1793" value="Статичний аналізатор коду&lt;br&gt;" style="text;html=1;strokeColor=none;fillColor=none;align=left;verticalAlign=middle;whiteSpace=wrap;rounded=0;fontSize=18;" vertex="1" parent="1">
          <mxGeometry x="480" y="-220" width="340" height="40" as="geometry" />
        </mxCell>
        <mxCell id="RhckIK_j0i6GvAb3lHkg-1794" value="Форматовані коміти (commit conversation). YT задачі згідно CC" style="text;html=1;strokeColor=none;fillColor=none;align=left;verticalAlign=middle;whiteSpace=wrap;rounded=0;fontSize=18;" vertex="1" parent="1">
          <mxGeometry x="480" y="-170" width="340" height="40" as="geometry" />
        </mxCell>
        <mxCell id="RhckIK_j0i6GvAb3lHkg-1795" value="CodeReview (UpSource)" style="text;html=1;strokeColor=none;fillColor=none;align=left;verticalAlign=middle;whiteSpace=wrap;rounded=0;fontSize=18;" vertex="1" parent="1">
          <mxGeometry x="480" y="-110" width="340" height="40" as="geometry" />
        </mxCell>
        <mxCell id="RhckIK_j0i6GvAb3lHkg-1796" value="Blue-Green Deploy" style="text;html=1;strokeColor=none;fillColor=none;align=left;verticalAlign=middle;whiteSpace=wrap;rounded=0;fontSize=18;" vertex="1" parent="1">
          <mxGeometry x="480" y="-60" width="340" height="40" as="geometry" />
        </mxCell>
        <mxCell id="RhckIK_j0i6GvAb3lHkg-1797" value="Моніторинг app" style="text;html=1;strokeColor=none;fillColor=none;align=left;verticalAlign=middle;whiteSpace=wrap;rounded=0;fontSize=18;" vertex="1" parent="1">
          <mxGeometry x="480" y="-10" width="340" height="40" as="geometry" />
        </mxCell>
        <mxCell id="RhckIK_j0i6GvAb3lHkg-1798" value="Процедура роботи із репозиторієм" style="text;html=1;strokeColor=none;fillColor=none;align=left;verticalAlign=middle;whiteSpace=wrap;rounded=0;fontSize=18;" vertex="1" parent="1">
          <mxGeometry x="480" y="40" width="340" height="40" as="geometry" />
        </mxCell>
      </root>
    </mxGraphModel>
  </diagram>
</mxfile>
